<svg width="30" height="11" viewBox="0 0 30 11" fill="none" xmlns="http://www.w3.org/2000/svg">
<path fill-rule="evenodd" clip-rule="evenodd" d="M25.4596 3.82741C24.3163 2.75251 23.6425 1.38192 23.4538 0.155363L24.9834 0C25.1373 1.00025 25.6967 2.13481 26.6259 3.00835C27.5397 3.86748 28.4233 4.44482 30 4.4499C29.6359 4.43813 29.6222 4.44992 30 4.4499V5.08792V5.71427C28.4737 5.72114 27.5943 6.38676 26.6621 7.40918C25.7184 8.44432 25.1438 9.79618 24.985 11L23.4523 10.8666C23.6361 9.47245 24.2947 7.90163 25.4235 6.66357C25.7362 6.32057 26.0889 5.99949 26.4811 5.71427L0 5.71421L0 4.46164L26.2426 4.46169C25.9603 4.26558 25.6991 4.05261 25.4596 3.82741Z" fill="#1C1D20"/>
</svg>
