<svg width="30" height="11" viewBox="0 0 30 11" fill="none" xmlns="http://www.w3.org/2000/svg">
<path fill-rule="evenodd" clip-rule="evenodd" d="M4.54041 3.82741C5.68372 2.75251 6.35749 1.38192 6.54618 0.155363L5.01658 0C4.86271 1.00025 4.30328 2.13481 3.37413 3.00835C2.46033 3.86748 1.57671 4.44482 0 4.4499C0.364063 4.43813 0.377815 4.44992 0 4.4499V5.08792V5.71427C1.52633 5.72114 2.40575 6.38676 3.33789 7.40918C4.28161 8.44432 4.85622 9.79618 5.01496 11L6.54768 10.8666C6.36386 9.47245 5.70527 7.90163 4.57653 6.66357C4.26382 6.32057 3.91106 5.99949 3.51887 5.71427L30 5.71421V4.46164L3.75735 4.46169C4.03972 4.26558 4.30087 4.05261 4.54041 3.82741Z" fill="#1C1D20"/>
</svg>
